<svg xmlns="http://www.w3.org/2000/svg" viewBox="0 0 512 512" width="512" height="512">
  <defs>
    <linearGradient id="bg" x1="0" y1="0" x2="0" y2="1">
      <stop offset="0" stop-color="#6B4DFF"/>
      <stop offset="1" stop-color="#5331E8"/>
    </linearGradient>
  </defs>
  <rect x="0" y="0" width="512" height="512" rx="112" fill="url(#bg)"/>
  <g transform="translate(1,-44) translate(255,300) scale(1.34) translate(-255,-300)">
    <rect x="318" y="206" width="118" height="158" rx="40" fill="#FFC21F"/>
    <rect x="340" y="232" width="74" height="62" rx="20" fill="#BFE9FF"/>
    <rect x="340" y="232" width="34" height="62" rx="18" fill="#A6DEFF"/>
    <rect x="74" y="180" width="282" height="184" rx="40" fill="#FFCE2E"/>
    <path d="M74 214 a40 40 0 0 1 40 -34 h242 v34 z" fill="#FF5A6E"/>
    <g fill="#FFFFFF">
      <rect x="142" y="180" width="34" height="34"/>
      <rect x="210" y="180" width="34" height="34"/>
      <rect x="278" y="180" width="34" height="34"/>
    </g>
    <rect x="96" y="250" width="238" height="92" rx="26" fill="#16151D"/>
    <text x="215" y="316" text-anchor="middle" font-family="-apple-system, 'Helvetica Neue', Arial, sans-serif" font-weight="800" font-size="66" fill="#FFCE2E" letter-spacing="1">21MG</text>
    <rect x="92" y="350" width="58" height="30" rx="14" fill="#16151D"/>
    <rect x="328" y="350" width="58" height="30" rx="14" fill="#16151D"/>
    <circle cx="150" cy="380" r="40" fill="#16151D"/>
    <circle cx="150" cy="380" r="17" fill="#FFCE2E"/>
    <circle cx="362" cy="380" r="40" fill="#16151D"/>
    <circle cx="362" cy="380" r="17" fill="#FFCE2E"/>
  </g>
</svg>
